<svg id="Apple_Store" data-name="Apple Store" xmlns="http://www.w3.org/2000/svg" width="150" height="45" viewBox="0 0 150 45">
  <rect id="button" width="150" height="45" rx="10"/>
  <text id="Download_on_the" data-name="Download on the" transform="translate(47.718 16.643)" fill="#fff" font-size="10" font-family="SegoeUI, Segoe UI"><tspan x="0" y="0" letter-spacing="0.08em">Download on th</tspan><tspan y="0">e</tspan></text>
  <text id="App_Store" data-name="App Store" transform="translate(47.718 37.079)" fill="#fff" font-size="19" font-family="SegoeUI, Segoe UI"><tspan x="0" y="0">App Store</tspan></text>
  <path id="logo" d="M7.7,29.416c-1.827,0-3.21-1.762-4.582-3.724A18.436,18.436,0,0,1,.244,18.6a11.546,11.546,0,0,1,1-7.73A7.523,7.523,0,0,1,3.853,8.2,7.039,7.039,0,0,1,7.378,7.183h.075a8.328,8.328,0,0,1,2.985.757,5.678,5.678,0,0,0,1.838.523,5.786,5.786,0,0,0,1.777-.516,9.663,9.663,0,0,1,3.431-.854c.16,0,.319.008.472.023a6.9,6.9,0,0,1,5.424,2.913l-.024.015a6.587,6.587,0,0,0-3.178,5.588,6.491,6.491,0,0,0,3.973,5.945l.008,0-.009.03A16.11,16.11,0,0,1,22.1,25.764c-1.157,1.676-2.467,3.575-4.54,3.613h-.09a5.143,5.143,0,0,1-2.208-.551,5.966,5.966,0,0,0-2.6-.618,6.34,6.34,0,0,0-2.729.638,5.669,5.669,0,0,1-2.133.567ZM12.342,6.791c-.1,0-.2,0-.3-.012a6.1,6.1,0,0,1,1.575-4.552A6.652,6.652,0,0,1,17.986,0a6.464,6.464,0,0,1-1.545,4.7A5.591,5.591,0,0,1,12.342,6.791Z" transform="translate(11.867 7.759)" fill="#fff"/>
</svg>
